<?xml version="1.0" encoding="UTF-8" standalone="no"?> <svg width="512" height="512" viewBox="0 0 512 512" fill="none" xmlns="http://www.w3.org/2000/svg">
<path d="M414.354 282.359L373.333 225.959V74.667C373.315 57.6988 366.566 41.4309 354.568 29.4326C342.569 17.4343 326.302 10.6855 309.333 10.667H202.667C185.699 10.6855 169.431 17.4343 157.433 29.4326C145.435 41.4309 138.686 57.6988 138.667 74.667V225.854L97.5783 282.359C90.6354 291.906 86.4683 303.188 85.538 314.956C84.6076 326.724 86.9503 338.521 92.3068 349.04C97.6634 359.56 105.825 368.393 115.889 374.563C125.954 380.733 137.528 383.999 149.333 384H234.666V480C234.666 485.658 236.914 491.084 240.915 495.085C244.916 499.086 250.342 501.333 256 501.333C261.658 501.333 267.084 499.086 271.085 495.085C275.086 491.084 277.333 485.658 277.333 480V384H362.588C374.394 384.001 385.97 380.736 396.036 374.567C406.102 368.398 414.265 359.565 419.623 349.045C424.981 338.525 427.325 326.728 426.395 314.959C425.465 303.19 421.298 291.907 414.354 282.359V282.359ZM381.6 329.682C379.848 333.215 377.135 336.183 373.772 338.244C370.41 340.305 366.534 341.376 362.59 341.333H149.333C145.398 341.333 141.54 340.244 138.185 338.188C134.831 336.131 132.11 333.186 130.325 329.68C128.539 326.173 127.759 322.241 128.069 318.318C128.379 314.396 129.769 310.635 132.083 307.453L177.255 245.338C179.907 241.692 181.334 237.299 181.333 232.791V74.667C181.339 69.0108 183.588 63.5879 187.588 59.5884C191.587 55.5889 197.01 53.3396 202.666 53.334H309.333C314.99 53.3396 320.412 55.5889 324.412 59.5884C328.411 63.5879 330.661 69.0108 330.666 74.667V232.9C330.665 237.408 332.093 241.801 334.744 245.447L379.844 307.457C382.198 310.621 383.612 314.385 383.922 318.317C384.233 322.248 383.428 326.187 381.6 329.682V329.682Z" fill="black"/>
</svg>
